<svg width="260" height="60" viewBox="0 0 260 60" fill="none" xmlns="http://www.w3.org/2000/svg">
<path d="M63.375 43V11.14H69.81V43H63.375ZM75.6586 43V19.285H81.5536L81.8686 22.03C82.5286 21.22 83.2786 20.59 84.1186 20.14C84.9886 19.66 85.8586 19.33 86.7286 19.15C87.6286 18.97 88.4386 18.88 89.1586 18.88C91.4386 18.88 93.2086 19.375 94.4686 20.365C95.7586 21.355 96.6736 22.69 97.2136 24.37C97.7836 26.02 98.0686 27.865 98.0686 29.905V43H91.7686V30.715C91.7686 29.995 91.7086 29.275 91.5886 28.555C91.4686 27.835 91.2436 27.175 90.9136 26.575C90.6136 25.975 90.1786 25.495 89.6086 25.135C89.0386 24.775 88.2886 24.595 87.3586 24.595C86.1586 24.595 85.1536 24.895 84.3436 25.495C83.5336 26.095 82.9336 26.905 82.5436 27.925C82.1536 28.945 81.9586 30.07 81.9586 31.3V43H75.6586ZM102.905 43V11.14H109.205V28.375H112.31L118.115 19.285H125.18L117.62 30.58L125.81 43H118.52L112.58 34H109.205V43H102.905ZM150.507 43.315C148.107 43.315 146.112 42.775 144.522 41.695C142.962 40.585 141.792 39.115 141.012 37.285C140.232 35.425 139.842 33.37 139.842 31.12C139.842 28.75 140.262 26.65 141.102 24.82C141.942 22.96 143.187 21.505 144.837 20.455C146.487 19.405 148.542 18.88 151.002 18.88C151.842 18.88 152.667 18.985 153.477 19.195C154.317 19.375 155.082 19.66 155.772 20.05C156.492 20.41 157.107 20.89 157.617 21.49V11.14H163.917V43H157.797L157.707 40.345C157.167 41.035 156.507 41.605 155.727 42.055C154.977 42.475 154.167 42.79 153.297 43C152.427 43.21 151.497 43.315 150.507 43.315ZM151.767 37.645C153.117 37.645 154.212 37.33 155.052 36.7C155.922 36.07 156.567 35.26 156.987 34.27C157.407 33.28 157.617 32.215 157.617 31.075C157.617 29.905 157.407 28.84 156.987 27.88C156.597 26.89 155.967 26.11 155.097 25.54C154.257 24.94 153.147 24.64 151.767 24.64C150.387 24.64 149.277 24.955 148.437 25.585C147.597 26.215 146.997 27.04 146.637 28.06C146.307 29.05 146.142 30.115 146.142 31.255C146.142 32.095 146.232 32.905 146.412 33.685C146.622 34.435 146.952 35.11 147.402 35.71C147.852 36.31 148.437 36.79 149.157 37.15C149.877 37.48 150.747 37.645 151.767 37.645ZM179.937 43.315C177.537 43.315 175.437 42.835 173.637 41.875C171.837 40.885 170.442 39.49 169.452 37.69C168.462 35.86 167.967 33.7 167.967 31.21C167.967 28.66 168.462 26.47 169.452 24.64C170.472 22.78 171.882 21.355 173.682 20.365C175.482 19.375 177.552 18.88 179.892 18.88C182.292 18.88 184.377 19.39 186.147 20.41C187.917 21.43 189.297 22.855 190.287 24.685C191.277 26.515 191.772 28.705 191.772 31.255C191.772 33.745 191.277 35.905 190.287 37.735C189.327 39.535 187.962 40.915 186.192 41.875C184.452 42.835 182.367 43.315 179.937 43.315ZM179.847 37.555C181.227 37.555 182.337 37.255 183.177 36.655C184.017 36.055 184.617 35.275 184.977 34.315C185.367 33.325 185.562 32.29 185.562 31.21C185.562 30.13 185.367 29.095 184.977 28.105C184.617 27.115 184.017 26.305 183.177 25.675C182.367 25.015 181.257 24.685 179.847 24.685C178.497 24.685 177.402 25.015 176.562 25.675C175.722 26.305 175.107 27.115 174.717 28.105C174.357 29.095 174.177 30.13 174.177 31.21C174.177 32.32 174.357 33.355 174.717 34.315C175.107 35.275 175.722 36.055 176.562 36.655C177.402 37.255 178.497 37.555 179.847 37.555ZM200.89 43L193.42 19.285H200.305L204.715 35.8L209.395 19.285H216.46L221.14 35.8L225.46 19.285H232.255L224.785 43H217.54L212.815 26.98L208.135 43H200.89ZM234.829 43V19.285H240.724L241.039 22.03C241.699 21.22 242.449 20.59 243.289 20.14C244.159 19.66 245.029 19.33 245.899 19.15C246.799 18.97 247.609 18.88 248.329 18.88C250.609 18.88 252.379 19.375 253.639 20.365C254.929 21.355 255.844 22.69 256.384 24.37C256.954 26.02 257.239 27.865 257.239 29.905V43H250.939V30.715C250.939 29.995 250.879 29.275 250.759 28.555C250.639 27.835 250.414 27.175 250.084 26.575C249.784 25.975 249.349 25.495 248.779 25.135C248.209 24.775 247.459 24.595 246.529 24.595C245.329 24.595 244.324 24.895 243.514 25.495C242.704 26.095 242.104 26.905 241.714 27.925C241.324 28.945 241.129 30.07 241.129 31.3V43H234.829Z" fill="#E4E4E7"/>
<path d="M39.2675 53.2325C38.7987 53.7012 38.1629 53.9645 37.5 53.9645C36.8371 53.9645 36.2013 53.7012 35.7325 53.2325L31.7675 49.2675C31.2988 48.7987 31.0355 48.1629 31.0355 47.5C31.0355 46.8371 31.2988 46.2013 31.7675 45.7325L45.7325 31.7675C46.2013 31.2988 46.8371 31.0355 47.5 31.0355C48.1629 31.0355 48.7987 31.2988 49.2675 31.7675L53.2325 35.7325C53.7012 36.2013 53.9645 36.8371 53.9645 37.5C53.9645 38.1629 53.7012 38.7987 53.2325 39.2675L39.2675 53.2325Z" stroke="#3730A3" stroke-width="2.5" stroke-linecap="round" stroke-linejoin="round"/>
<path d="M45 32.5L41.5625 15.315C41.469 14.8475 41.2438 14.4164 40.9133 14.0727C40.5829 13.7289 40.161 13.4869 39.6975 13.375L8.08751 5.07002C7.67108 4.96933 7.23577 4.97736 6.82333 5.09332C6.41089 5.20928 6.03518 5.42929 5.73223 5.73223C5.42929 6.03518 5.20928 6.41089 5.09332 6.82333C4.97736 7.23577 4.96933 7.67108 5.07002 8.08751L13.375 39.6975C13.4869 40.161 13.7289 40.5829 14.0727 40.9133C14.4164 41.2438 14.8475 41.469 15.315 41.5625L32.5 45" stroke="#3730A3" stroke-width="2.5" stroke-linecap="round" stroke-linejoin="round"/>
<path d="M5.75 5.75L23.965 23.965" stroke="#3730A3" stroke-width="2.5" stroke-linecap="round" stroke-linejoin="round"/>
<path d="M27.5 32.5C30.2614 32.5 32.5 30.2614 32.5 27.5C32.5 24.7386 30.2614 22.5 27.5 22.5C24.7386 22.5 22.5 24.7386 22.5 27.5C22.5 30.2614 24.7386 32.5 27.5 32.5Z" stroke="#3730A3" stroke-width="2.5" stroke-linecap="round" stroke-linejoin="round"/>
</svg>
