<svg width="60" height="60" viewBox="0 0 60 60" fill="none" xmlns="http://www.w3.org/2000/svg">
<path d="M39.2675 53.2325C38.7987 53.7012 38.1629 53.9645 37.5 53.9645C36.8371 53.9645 36.2013 53.7012 35.7325 53.2325L31.7675 49.2675C31.2988 48.7987 31.0355 48.1629 31.0355 47.5C31.0355 46.8371 31.2988 46.2013 31.7675 45.7325L45.7325 31.7675C46.2013 31.2988 46.8371 31.0355 47.5 31.0355C48.1629 31.0355 48.7987 31.2988 49.2675 31.7675L53.2325 35.7325C53.7012 36.2013 53.9645 36.8371 53.9645 37.5C53.9645 38.1629 53.7012 38.7987 53.2325 39.2675L39.2675 53.2325Z" stroke="#3730A3" stroke-width="2.5" stroke-linecap="round" stroke-linejoin="round"/>
<path d="M45 32.5L41.5625 15.315C41.469 14.8475 41.2438 14.4164 40.9133 14.0727C40.5829 13.7289 40.161 13.4869 39.6975 13.375L8.08751 5.07002C7.67108 4.96933 7.23577 4.97736 6.82333 5.09332C6.41089 5.20928 6.03518 5.42929 5.73223 5.73223C5.42929 6.03518 5.20928 6.41089 5.09332 6.82333C4.97736 7.23577 4.96933 7.67108 5.07002 8.08751L13.375 39.6975C13.4869 40.161 13.7289 40.5829 14.0727 40.9133C14.4164 41.2438 14.8475 41.469 15.315 41.5625L32.5 45" stroke="#3730A3" stroke-width="2.5" stroke-linecap="round" stroke-linejoin="round"/>
<path d="M5.75 5.75L23.965 23.965" stroke="#3730A3" stroke-width="2.5" stroke-linecap="round" stroke-linejoin="round"/>
<path d="M27.5 32.5C30.2614 32.5 32.5 30.2614 32.5 27.5C32.5 24.7386 30.2614 22.5 27.5 22.5C24.7386 22.5 22.5 24.7386 22.5 27.5C22.5 30.2614 24.7386 32.5 27.5 32.5Z" stroke="#3730A3" stroke-width="2.5" stroke-linecap="round" stroke-linejoin="round"/>
</svg>
